<mxfile host="app.diagrams.net" modified="2022-04-11T07:29:34.672Z" agent="5.0 (Windows NT 10.0; Win64; x64) AppleWebKit/537.36 (KHTML, like Gecko) Chrome/100.0.4896.75 Safari/537.36" etag="8zBtiGIpExCjhAMEXmcn" version="15.7.0" type="github">
  <diagram id="yGkLPgfmihIIyjirV-W2" name="第 1 页">
    <mxGraphModel dx="1102" dy="674" grid="1" gridSize="10" guides="1" tooltips="1" connect="1" arrows="1" fold="1" page="1" pageScale="1" pageWidth="827" pageHeight="1169" math="0" shadow="0">
      <root>
        <mxCell id="0" />
        <mxCell id="1" parent="0" />
        <mxCell id="Tj5IRXzhEHUmC_tsFu-O-1" value="base64enc{{&lt;br&gt;&lt;span style=&quot;white-space: pre&quot;&gt;	&lt;/span&gt;“alg”: &quot;HS256&quot;,&lt;br&gt;&lt;span style=&quot;white-space: pre&quot;&gt;	&lt;/span&gt;&quot;typ&quot;: &quot;JWT&quot;&amp;nbsp;&amp;nbsp;&lt;br&gt;}}" style="rounded=0;whiteSpace=wrap;html=1;align=left;" vertex="1" parent="1">
          <mxGeometry x="90" y="170" width="280" height="150" as="geometry" />
        </mxCell>
        <mxCell id="Tj5IRXzhEHUmC_tsFu-O-2" value="base64enc{{&lt;br&gt;&lt;span style=&quot;white-space: pre&quot;&gt;	&lt;/span&gt;“iss”: &quot;qudehu&quot;,&lt;br&gt;&lt;span style=&quot;white-space: pre&quot;&gt;	&lt;/span&gt;&quot;exp&quot;: &quot;1429832463&quot;,&lt;br&gt;&lt;span style=&quot;white-space: pre&quot;&gt;	&lt;/span&gt;&quot;company&quot;: &quot;chaclo&quot;,&lt;br&gt;&lt;span style=&quot;white-space: pre&quot;&gt;	&lt;/span&gt;&quot;awesome&quot;: &quot;true&quot;&amp;nbsp;&amp;nbsp;&lt;br&gt;}}" style="rounded=0;whiteSpace=wrap;html=1;align=left;" vertex="1" parent="1">
          <mxGeometry x="414" y="170" width="280" height="150" as="geometry" />
        </mxCell>
        <mxCell id="Tj5IRXzhEHUmC_tsFu-O-3" value="HMACSHA256(base64UrlEncode(header)&lt;br&gt;+&quot;.&quot;+base64UrlEncode(payload),secret)" style="rounded=0;whiteSpace=wrap;html=1;align=left;" vertex="1" parent="1">
          <mxGeometry x="740" y="170" width="280" height="150" as="geometry" />
        </mxCell>
      </root>
    </mxGraphModel>
  </diagram>
</mxfile>
